<svg id="Layer_1"  xmlns="http://www.w3.org/2000/svg" width="480.16" height="415.3" viewBox="0 0 480.16 415.3">
  <defs>
    <style>
      .cls-1 {
        fill: #44566c;
        fill-rule: evenodd;
      }
    </style>
  </defs>
  <title>mui-logo-freelogovectors.net</title>
  <path class="cls-1" d="M423.39,129.17a13.33,13.33,0,0,0,20.2,11.42l40-24a12.55,12.55,0,0,0,6.48-11.44V56.23a13.33,13.33,0,0,0-20.19-11.42l-40,24a12.59,12.59,0,0,0-6.48,11.44v48.93m-8.76,196.66a12.53,12.53,0,0,0,6.7-11.52l.24-77.19a12.52,12.52,0,0,1,6.69-11.55l41.85-24a13.33,13.33,0,0,1,20,11.57V353.46A12.51,12.51,0,0,1,483.39,365L325.48,455.75a12.53,12.53,0,0,1-13.26,0L188.3,384.88a12.53,12.53,0,0,1-6.72-11.6V302.51a.11.11,0,0,1,.17-.08.11.11,0,0,0,.16-.1v-.08a.13.13,0,0,1,.08-.12l102.06-58.66a.12.12,0,0,0-.05-.21c-.07,0-.11,0-.11-.1l.2-69.39a13.33,13.33,0,0,0-20-11.59l-75.86,43.7a12.51,12.51,0,0,1-13.32,0L98.82,162.07a13,13,0,0,0-6.66-1.79A13.3,13.3,0,0,0,80.62,167a13.07,13.07,0,0,0-1.79,6.66V299a13.33,13.33,0,0,1-13.29,13.34,13.25,13.25,0,0,1-6.66-1.74L16.64,286.48a12.56,12.56,0,0,1-6.72-11.62L10.3,55.67A13.1,13.1,0,0,1,12.09,49,13.38,13.38,0,0,1,17,44.14a13.33,13.33,0,0,1,13.31,0l144.66,83.11a12.58,12.58,0,0,0,13.29,0L332.83,44.12a13.24,13.24,0,0,1,6.67-1.77,12.93,12.93,0,0,1,6.66,1.82,13.26,13.26,0,0,1,6.65,11.54V275a12.54,12.54,0,0,1-6.68,11.57l-75.74,43.63a13.32,13.32,0,0,0,.06,23.12l41.77,23.79a12.56,12.56,0,0,0,13.25,0Z" transform="translate(-9.92 -42.35)"/>
</svg>
